# xmcd
#
# Track frame offsets: 
#        150
#        12029
#        30954
#        53229
#        66557
#        81066
#        94308
#        107857
#        123153
#        147368
#        165074
#
# Disc length: 2521 seconds
#
# Revision: 0
# Processed by: cddbd v1.4PL0 Copyright (c) Steve Scherf et al.
# Submitted via: ExactAudioCopy v0.90b3
#
DISCID=8409d70b
DTITLE=Patrick Sweany - I Wanna Tell You
DYEAR=2002
DGENRE=
TTITLE0=Bring the Money Home
TTITLE1=Everyday Is Saturday Night
TTITLE2=I Wanna Tell You
TTITLE3=Sleepy Town
TTITLE4=Blue All the Time
TTITLE5=Chelsea Swing
TTITLE6=Reel and Rock
TTITLE7=Always Thinking of You
TTITLE8=All Night Boogie
TTITLE9=Southern Blues
TTITLE10=Back to Arkansas
EXTD=
EXTT0=
EXTT1=
EXTT2=
EXTT3=
EXTT4=
EXTT5=
EXTT6=
EXTT7=
EXTT8=
EXTT9=
EXTT10=
PLAYORDER=
